<svg  xmlns="http://www.w3.org/2000/svg" viewBox="0 0 439 439">
  <defs >
    <style>
      .cls-1 {
        fill: #fff;
      }
    </style>
  </defs>

  <path id="logo" class="cls-1" d="M219.5,439a221.126,221.126,0,0,1-44.237-4.459,218.3,218.3,0,0,1-78.488-33.028,220.142,220.142,0,0,1-79.526-96.574,218.4,218.4,0,0,1-12.79-41.2,221.641,221.641,0,0,1,0-88.474A218.3,218.3,0,0,1,37.487,96.776a220.142,220.142,0,0,1,96.574-79.526,218.4,218.4,0,0,1,41.2-12.79,221.641,221.641,0,0,1,88.474,0,218.3,218.3,0,0,1,78.488,33.028,220.142,220.142,0,0,1,79.526,96.574,218.4,218.4,0,0,1,12.79,41.2,221.641,221.641,0,0,1,0,88.474,218.3,218.3,0,0,1-33.028,78.488,220.142,220.142,0,0,1-96.574,79.526,218.4,218.4,0,0,1-41.2,12.79A221.126,221.126,0,0,1,219.5,439Zm.5-266a47,47,0,1,0,47,47A47.053,47.053,0,0,0,220,173Z" transform="translate(0 0)"/>
  <animateTransform id="logo_to_0" attributeType="xml"
                attributeName="transform"
                begin="indefinite"
                type="scale"
                from="1"
                to="0.3"
                dur="0.5s" fill="freeze" />

  <animateTransform id="logo_to_1" attributeType="xml"
                attributeName="transform"
                begin="indefinite"
                type="scale"
                from="0.3"
                to="1"
                dur="0.5s" fill="freeze" />
</svg>
